<mxfile host="app.diagrams.net" modified="2023-06-23T13:04:36.034Z" agent="Mozilla/5.0 (Windows NT 10.0; Win64; x64) AppleWebKit/537.36 (KHTML, like Gecko) Chrome/114.0.0.0 Safari/537.36" version="21.3.5" etag="HpaXdU8zYNRYCwKJ7s71" type="github">
  <diagram name="Page-1" id="Nxc5WDyAa7q3_pLjs_5t">
    <mxGraphModel>
      <root>
        <mxCell id="0" />
        <mxCell id="1" parent="0" />
      </root>
    </mxGraphModel>
  </diagram>
</mxfile>
